<?xml version="1.0" encoding="utf-8"?>
<!-- Generator: Adobe Illustrator 27.3.1, SVG Export Plug-In . SVG Version: 6.00 Build 0)  -->
<svg version="1.1" id="Layer_1" xmlns="http://www.w3.org/2000/svg" xmlns:xlink="http://www.w3.org/1999/xlink" x="0px" y="0px"
	 viewBox="0 0 172.04 199.09" style="enable-background:new 0 0 172.04 199.09;" xml:space="preserve">
<style type="text/css">
	.st0{fill:#339933;}
</style>
<path class="st0" d="M109.92,95.97c-0.72,0.46-1.48,0.88-2.16,1.4c-4.22,3.18-8.38,6.44-12.63,9.57c-4.63,3.4-9.7,5.97-15.2,7.65
	c-2.83,0.87-5.56,0.19-8.15-0.94c-1.57-0.69-1.72-2.15-0.51-3.4c0.9-0.93,1.86-1.8,2.82-2.67c1.12-1.02,1.93-2.23,2.19-3.73
	c0.4-2.3,1.44-4.31,2.77-6.16c3.28-4.57,6.61-9.11,9.91-13.67c0.45-0.62,0.93-1.23,1.3-1.9c0.74-1.31-0.08-2.73-1.56-2.66
	c-5.34,0.27-10.68,0.62-16.03,0.86c-4.33,0.19-8.67,0.27-13,0.39c-2.41,0.07-4.84,0.02-7.23,0.24c-1.21,0.11-2.44,0.59-3.56,1.13
	c-1.7,0.82-3.31,1.23-5.05,0.13c-0.98-0.62-1.91-0.21-2.7,0.45c-2.31,1.93-4.54,3.96-6.9,5.82c-5.85,4.62-11.75,9.17-17.63,13.74
	c-1.95,1.52-4.1,1.92-6.59,1.73c-2.34-0.18-4.73,0.16-7.08,0.46c-1.01,0.13-1.69,0.05-2.16-0.9c-1.29-2.61-1.2-3.45,2.15-4.17
	c0.7-0.15,1.24,0.04,1.56,0.72c0.32,0.69,0.89,0.86,1.6,0.98c3.39,0.6,6.3-0.3,9.04-2.35c6.3-4.72,12.72-9.27,19.01-14
	c2.79-2.1,5.47-4.37,8.07-6.71c2.21-1.99,4.65-2.77,7.52-2.11c5.31,1.22,10.55,0.63,15.82-0.32c3.64-0.66,7.33-1.04,11.01-1.52
	c0.54-0.07,1.11,0.05,1.99,0.11c-1.78-1.15-3.27-2.2-4.85-3.09c-0.4-0.23-1.08-0.04-1.62,0.05c-1,0.16-1.9-0.35-2.08-1.24
	c-0.18-0.89,0.45-1.84,1.43-1.97c1.68-0.23,3.27-0.3,4.69,1.05c0.88,0.83,2.12,1.31,3.24,1.87c0.8,0.4,1.43,0.22,1.62-0.78
	c0.04-0.2,0.09-0.42,0.21-0.59c1.83-2.59,3.65-5.2,5.54-7.75c0.8-1.09,2.02-1.48,3.35-1.41c5.62,0.3,11.27,0.26,16.78,1.59
	c1.43,0.34,2.62,0.09,3.55-1.12c0.25-0.33,0.58-0.61,0.84-0.94c1.93-2.37,4.32-4.02,7.31-4.84c1.2-0.33,2.36-0.89,3.44-1.51
	c1.27-0.74,1.58-1.52,1.15-2.93c-0.38-1.23-0.95-2.4-1.49-3.57c-0.51-1.11-1.14-2.17-1.64-3.28c-0.54-1.23-0.23-2.1,0.86-2.9
	c0.67-0.49,1.29-0.49,1.86,0.12c0.57,0.61,1.15,1.22,1.68,1.87c0.29,0.35,0.48,0.77,0.81,1.09c0.76-0.92,0.67-1.64,0.39-2.37
	c-0.29-0.75-0.62-1.48-0.89-2.24c-0.27-0.78,0.01-1.25,0.84-1.46c1.84-0.46,2.91,0.26,3.16,2.28c0.1,0.82-0.02,1.67-0.03,2.51
	c-0.01,0.51,0,1.02,0,1.53c0.1,0.02,0.19,0.04,0.29,0.06c0.15-0.32,0.32-0.63,0.43-0.97c0.34-1.01,1.06-1.42,2.09-1.37
	c1.08,0.06,2.17,0.17,3.25,0.14c2.06-0.06,2.84-0.79,2.75-2.84c-0.16-3.91-0.46-7.82-0.66-11.73c-0.21-3.94-0.55-7.89-0.53-11.84
	c0.03-4.35-1-8.44-2.29-12.52c-0.3-0.95-0.49-1.93-0.77-3.05c1.21,0,1.92,0.58,2.39,1.33c1.7,2.67,2.91,5.49,2.43,8.8
	c-0.12,0.85-0.11,1.78,0.11,2.6c0.96,3.6,0.72,7.3,0.98,10.95c0.29,3.98,0.57,7.95,0.97,11.92c0.19,1.82,0.08,3.54-0.66,5.23
	c-0.26,0.58-0.38,1.22-0.58,1.89c1.15,0.33,1.91,0,2.44-0.79c0.82-1.21,1.64-2.44,2.38-3.7c1.03-1.74,2.47-3.04,4.22-3.99
	c3.59-1.95,7.22-3.85,10.84-5.75c0.52-0.27,1.08-0.51,1.65-0.66c3.72-0.95,6.95-2.9,10.15-4.9c0.94-0.59,1.26-0.45,1.41,0.66
	c0.18,1.36-0.13,1.84-1.67,2.48c-2.22,0.93-4.53,1.69-6.67,2.78c-5.04,2.57-10.17,5.06-14.53,8.75c-2.13,1.8-4.08,3.83-6.01,5.85
	c-1.27,1.33-1.14,1.54,0,3.01c1.35,1.75,2.32,3.67,2.19,5.97c-0.06,1.08-0.13,2.16-0.19,3.25c-0.09,1.58-0.38,1.93-1.93,2.24
	c-0.99,0.2-2.02,0.25-2.99,0.53c-0.39,0.11-0.89,0.63-0.93,1.02c-0.13,1.14-0.08,2.3-0.03,3.44c0.01,0.31,0.21,0.77,0.45,0.88
	c1.29,0.57,2.58,1.29,3.94,1.52c2.37,0.4,4.8,0.44,7.2,0.71c0.53,0.06,1.1,0.3,1.53,0.62c1.36,1.02,2.83,0.87,4.01-0.01
	c1.35-1.01,2.81-1.19,4.34-1.24c1.33-0.05,2.51-0.29,3.57-1.21c0.57-0.5,1.44-0.68,2.2-0.91c0.7-0.21,1.36,0,1.66,0.72
	c0.41,0.96,0.79,1.93,1.07,2.93c0.19,0.67-0.19,1.07-0.92,1.04c-0.38-0.02-0.79,0.02-1.15-0.09c-1.82-0.54-3.2,0.27-4.48,1.4
	c-0.71,0.62-1.33,1.34-2.04,1.97c-1.99,1.77-4.42,2.74-7.58,1.27c-2.39-1.11-5.16-1.39-7.76-2.06c-1.92-0.49-3.82-1.07-5.75-1.5
	c-0.71-0.16-1.54-0.17-2.21,0.06c-0.81,0.27-1.51,0.85-2.25,1.32c-1.11,0.71-1.67,1.62-1.55,3.05c0.09,1.19-0.4,2.43-0.34,3.63
	c0.13,2.61,0.59,5.22,0.65,7.83c0.12,4.47,0.05,8.94,0.03,13.41c0,0.94-0.18,1.88-0.22,2.82c-0.07,1.72,0.43,3.24,1.73,4.44
	c1.13,1.04,2.15,2.22,3.36,3.16c4.41,3.41,7.6,7.9,10.89,12.29c1.23,1.63,2.48,3.14,4.33,4.17c1.99,1.11,2.62,3.37,1.72,5.46
	c-0.17,0.4-0.68,0.84-1.09,0.93c-1.48,0.3-3.15-0.54-3.54-1.96c-0.61-2.22-1.96-3.67-3.83-4.88c-0.68-0.44-1.04-1.41-1.51-2.15
	c-0.44-0.7-0.69-1.57-1.26-2.12c-3.98-3.84-7.92-7.72-12.06-11.38c-2.54-2.24-3.98-4.71-3.75-8.19c0.28-4.18,0.34-8.39,0.43-12.58
	c0.02-1.18-0.14-2.38-0.33-3.54c-0.17-1-0.63-1.22-1.33-0.53c-0.96,0.93-2.06,1.94-2.52,3.13c-1.95,5.13-5.35,9.32-8.55,13.64
	c-3.64,4.92-8.16,8.93-13.19,12.36c-4.65,3.17-9.31,6.33-14.04,9.38c-2.81,1.82-5.25,3.94-6.92,6.88c-0.38,0.67-0.85,1.28-1.23,1.95
	c-0.96,1.7-2.23,2.93-4.27,3.19c-0.95,0.12-1.67,0.67-2.14,1.52c-1.34,2.41-2.78,4.77-4.01,7.24
	c-6.06,12.22-12.26,24.36-18.99,36.23c-0.41,0.72-0.56,1.63-0.68,2.47c-0.19,1.42-0.72,2.61-2.12,3.1
	c-1.31,0.47-2.16,1.37-2.91,2.44c-1.06,1.52-2.1,3.06-3.21,4.54c-0.32,0.43-0.78,0.85-1.26,1.04c-0.93,0.38-1.22,1.07-1.27,1.96
	c-0.06,1.01-0.11,2.03-0.21,3.03c-0.11,1.12-0.61,1.48-1.61,1.04c-0.85-0.37-1.67-0.86-2.44-1.4c-0.75-0.54-0.9-1.34-0.19-1.97
	c3.52-3.13,5.42-7.55,8.68-10.89c1.18-1.21,2.02-2.57,1.47-4.42c-0.23-0.77,0.22-1.31,1.07-1.28c0.75,0.03,1.16-0.35,1.49-0.94
	c2.2-4.01,4.43-8.01,6.61-12.04c1.4-2.58,2.79-5.17,4.06-7.81c1.97-4.09,3.87-8.21,5.75-12.34c1.67-3.69,3.34-7.38,4.87-11.13
	c1.06-2.6,2.62-4.8,4.8-6.51c2.09-1.63,4.2-3.3,6.51-4.58c4.57-2.53,8.33-5.99,12-9.61c4.01-3.95,8.04-7.89,12.15-11.74
	c1.16-1.09,2.62-1.85,3.93-2.78C110.36,98.95,110.79,97.26,109.92,95.97z M83.71,71.95c0.48,0.04,0.85,0.09,1.22,0.09
	c3.5,0.02,7-0.05,10.49,0.07c3.49,0.12,5.81-1.8,7.92-4.2c0.24-0.28,0.38-0.67,0.5-1.03c0.4-1.19,0.07-1.75-1.2-1.77
	c-2.66-0.04-5.31-0.02-7.88,0.85c-0.61,0.21-1.31,0.3-1.95,0.24c-1.35-0.12-2.69-0.42-4.05-0.53c-0.49-0.04-1.26,0.07-1.48,0.4
	C86.06,67.92,84.96,69.86,83.71,71.95z"/>
</svg>
